<svg width="38" height="38" viewBox="0 0 38 38" xmlns="http://www.w3.org/2000/svg" xmlns:xlink="http://www.w3.org/1999/xlink"><title>Fill 5</title><defs><path id="a" d="M0 0h38v38H0z"/></defs><g fill="none" fill-rule="evenodd"><mask id="b" fill="#fff"><use xlink:href="#a"/></mask><path d="M24.488 10.552c-.312.655-.176 2.072-.176 3.243v10.082c1.195.646 2.453 1.051 3.683 1.578 1.193.512 2.332 1.321 3.769 1.49.318-.996.176-2.131.176-3.244 0-3.412.07-6.987-.088-10.168-2.28-1.14-4.743-2.095-7.101-3.157a.63.63 0 0 0-.263.176zm-2.105-.088c-1.11.226-2.472 1.016-3.77 1.577-.59.258-1.258.45-1.84.702-.558.242-1.254.476-1.578.964-.16 3.143-.088 6.856-.088 10.082 0 1.092-.195 2.264.263 3.156 1.387-.216 2.567-.96 3.77-1.49.609-.267 1.224-.519 1.84-.788.585-.257 1.379-.365 1.755-.966.116-3.646.144-8.137.087-11.834-.006-.429.214-1.184-.351-1.403h-.088zm-15.868 0c-.021-.225-.151.12-.35 0-.312.971-.176 2.083-.176 3.157v10.168c1.125.694 2.383 1.13 3.595 1.666 1.22.541 2.45 1.221 3.857 1.49.459-.895.263-2.068.263-3.156 0-3.43.07-7.088-.087-10.256-2.321-1.069-4.643-2.138-7.102-3.069zM17.474.119c6.003-.468 10.8 1.914 13.94 4.733 3.115 2.802 5.738 7.052 6.137 12.45.464 6.274-1.968 10.589-4.822 13.854-2.957 3.378-6.93 5.705-12.45 6.135-5.738.448-10.538-1.72-13.852-4.646C3.062 29.672.739 25.69.29 20.196-.213 14.03 2.09 9.59 4.937 6.344 7.696 3.198 11.852.559 17.474.119z" fill="#C1AF9F" mask="url(#b)"/></g></svg>