<svg width="22" height="31" viewBox="0 0 22 31" xmlns="http://www.w3.org/2000/svg" xmlns:xlink="http://www.w3.org/1999/xlink"><title>Group 7</title><defs><path d="M16.249 8.304a6.863 6.863 0 0 0-4.363 6.516c.017 1.933.855 3.518 1.853 4.601 1.262 1.366 3.235 2.381 5.739 2.152 3.165-.29 6.144-3.031 6.156-6.814.005-1.816-.76-3.45-1.734-4.543-1.371-1.535-3.231-2.579-5.977-2.27-.64.071-1.22.186-1.674.358M17.624 4h2.27c2.923.458 5.15 1.601 6.815 3.467 1.599 1.792 2.843 4.251 2.809 7.412-.024 2.254-.68 4.33-1.434 6.155-1.868 4.52-4.401 8.204-7.292 11.715-.568.691-1.076 1.499-1.913 1.854h-.12c-.797-.407-1.342-1.17-1.912-1.854-2.895-3.472-5.537-7.184-7.412-11.655-.756-1.806-1.411-3.973-1.434-6.215-.033-3.161 1.21-5.62 2.809-7.412C12.476 5.601 14.702 4.458 17.624 4" id="a"/></defs><use fill="#C1AF9F" xlink:href="#a" transform="translate(-7.758 -4)" fill-rule="evenodd"/></svg>